<svg width="56" height="57" viewBox="0 0 56 57" fill="none" xmlns="http://www.w3.org/2000/svg">
<path d="M43.4002 26.3387H33.2091L30.7292 18.7625C30.5351 18.1697 29.9714 17.7023 29.3704 17.7887C28.7554 17.803 28.2224 18.22 28.0553 18.8214L23.9702 33.3717L19.5676 13.205C19.4332 12.5951 18.9254 12.1448 18.3123 12.0945C17.7029 12.0527 17.1279 12.4032 16.9011 12.9847L11.6511 26.3389H1.40001C0.626284 26.3389 0 26.9763 0 27.7639C0 28.5514 0.626284 29.1889 1.40001 29.1889H12.6C13.1712 29.1898 13.6883 28.8355 13.8992 28.293L17.8174 18.3265L22.4327 39.4736C22.5717 40.1111 23.1187 40.5699 23.759 40.5899C23.773 40.5899 23.786 40.5899 23.8 40.5899C24.4234 40.5899 24.9731 40.17 25.145 39.5572L29.5037 24.0351L30.871 28.2152C31.0623 28.7966 31.598 29.189 32.2 29.189H43.4001C44.1738 29.189 44.8001 28.5515 44.8001 27.764C44.8002 26.9761 44.1739 26.3387 43.4002 26.3387Z" fill="#DCA41E"/>
<path d="M51.0797 7.16666C47.7991 3.82747 43.4992 2.15833 39.2002 2.15833C35.1775 2.15833 31.1875 3.6793 28.0002 6.60245C24.8119 3.6793 20.8229 2.15833 16.8001 2.15833C12.5003 2.15833 8.20126 3.82747 4.92065 7.16677C0.570355 11.5956 -0.830635 17.8334 0.589058 23.4916H3.50107C2.00777 18.5962 3.09879 13.0519 6.90024 9.1826C9.54439 6.49123 13.0603 5.00923 16.8001 5.00923C20.2133 5.00923 23.4063 6.29652 25.9543 8.55938L28.0002 10.506L30.047 8.55849C32.595 6.29652 35.788 5.00834 39.2002 5.00834C42.9401 5.00834 46.4551 6.49034 49.1001 9.18171C54.5592 14.7373 54.5583 23.7786 49.1001 29.3342L28.0002 50.8108L9.56025 32.0416H5.60009L28.0002 54.8417L51.0797 31.35C57.6401 24.6715 57.6401 13.8453 51.0797 7.16666Z" fill="#DCA41E"/>
</svg>
