<svg width="68" height="68" viewBox="0 0 68 68" fill="none" xmlns="http://www.w3.org/2000/svg">
<path d="M26.9701 34.3891C26.4521 33.8698 25.6101 33.8698 25.0921 34.3891C24.5728 34.9071 24.5728 35.7491 25.0921 36.2671C25.6101 36.7864 26.4521 36.7864 26.9701 36.2671C27.4894 35.7491 27.4894 34.9071 26.9701 34.3891Z" fill="#6D7831"/>
<path d="M34 36.6562C31.803 36.6562 30.0156 38.4436 30.0156 40.6406C30.0156 42.8376 31.803 44.625 34 44.625C36.197 44.625 37.9844 42.8376 37.9844 40.6406C37.9844 38.4436 36.197 36.6562 34 36.6562ZM34 41.9688C33.2677 41.9688 32.6719 41.373 32.6719 40.6406C32.6719 39.9083 33.2677 39.3125 34 39.3125C34.7323 39.3125 35.3281 39.9083 35.3281 40.6406C35.3281 41.373 34.7323 41.9688 34 41.9688Z" fill="#6D7831"/>
<path d="M34 30.0156C32.5154 30.0156 31.0799 30.3156 29.7335 30.9075C29.062 31.2027 28.757 31.9863 29.0521 32.6578C29.3472 33.3293 30.1309 33.6342 30.8024 33.3393C31.8098 32.8965 32.8857 32.6719 34 32.6719C38.394 32.6719 41.9688 36.2467 41.9688 40.6406C41.9688 45.0346 38.394 48.6094 34 48.6094C29.606 48.6094 26.0312 45.0346 26.0312 40.6406C26.0312 40.5952 26.0311 40.5508 26.0322 40.5054C26.0492 39.7722 25.4685 39.1639 24.7353 39.1469C24.0008 39.1286 23.3937 39.7104 23.3767 40.4438C23.3751 40.5099 23.375 40.5745 23.375 40.6406C23.375 46.4993 28.1414 51.2656 34 51.2656C39.8586 51.2656 44.625 46.4993 44.625 40.6406C44.625 34.782 39.8586 30.0156 34 30.0156Z" fill="#6D7831"/>
<path d="M34 10.0938C33.2665 10.0938 32.6719 10.6884 32.6719 11.4219V19.3906C32.6719 20.1241 33.2665 20.7188 34 20.7188C34.7335 20.7188 35.3281 20.1241 35.3281 19.3906V11.4219C35.3281 10.6884 34.7335 10.0938 34 10.0938Z" fill="#6D7831"/>
<path d="M19.1625 19.9402L13.5286 14.3063C13.0099 13.7876 12.169 13.7876 11.6502 14.3063C11.1316 14.8249 11.1316 15.6659 11.6502 16.1846L17.2841 21.8185C17.8027 22.3372 18.6438 22.3373 19.1625 21.8185C19.6811 21.2999 19.6811 20.4589 19.1625 19.9402Z" fill="#6D7831"/>
<path d="M56.35 14.3063C55.8314 13.7876 54.9904 13.7876 54.4716 14.3063L48.8377 19.9402C48.3191 20.4588 48.3191 21.2998 48.8377 21.8185C49.3562 22.3372 50.1973 22.3373 50.7161 21.8185L56.35 16.1846C56.8686 15.666 56.8686 14.825 56.35 14.3063Z" fill="#6D7831"/>
<path d="M67.6673 40.8677C59.2304 31.316 46.703 23.375 34 23.375C21.2953 23.375 8.768 31.318 0.332684 40.8677C-0.152879 41.4176 -0.100816 42.2568 0.448895 42.7424C0.998738 43.2279 1.83811 43.1759 2.32354 42.6262C2.60657 42.3057 2.8965 41.9864 3.19014 41.6691C9.75307 51.5854 21.6502 57.9062 34 57.9062C46.3498 57.9062 58.2469 51.5854 64.8098 41.6691C65.1035 41.9865 65.3934 42.3058 65.6764 42.6262C66.1604 43.1742 66.9996 43.2294 67.5511 42.7424C68.1008 42.2568 68.1529 41.4174 67.6673 40.8677ZM34 55.25C22.3238 55.25 11.0937 49.1833 5.08817 39.7136C9.82001 35.077 20.7534 26.0312 34 26.0312C47.2467 26.0312 58.18 35.077 62.9118 39.7135C56.9063 49.1833 45.6762 55.25 34 55.25Z" fill="#6D7831"/>
</svg>
