<svg width="55" height="71" viewBox="0 0 55 71" fill="none" xmlns="http://www.w3.org/2000/svg">
<path d="M52.3327 35.1005C52.3022 34.9635 52.241 34.8402 52.1646 34.7169C51.5224 33.3467 50.758 32.0314 49.8407 30.7846L48.9998 29.6337C48.954 29.5789 48.9081 29.5241 48.8622 29.4693C49.1068 28.9761 49.2597 28.428 49.2597 27.8526C49.2597 24.6465 46.3396 22.0296 42.7621 22.0296H39.1693C40.0407 20.9472 40.5453 19.6319 40.5453 18.1933C40.5453 16.2341 39.6127 14.3707 37.9921 13.0554L23.208 1.17654C22.5812 0.669603 21.618 0.710706 21.0523 1.28615C20.4867 1.8479 20.5325 2.71107 21.1747 3.21801L35.9434 15.1106C36.9524 15.9189 37.5181 17.0835 37.4875 18.3029C37.4417 20.3992 35.4695 22.0433 33.1303 22.0433H33.0539C32.9621 22.0433 32.8857 22.0433 32.794 22.057L17.5513 24.3725C17.536 24.3725 17.5054 24.3725 17.4748 24.3588C17.4442 24.3314 17.4442 24.3177 17.4442 24.304V9.60272C17.4442 8.87657 16.8327 8.23261 16.0224 8.19151C15.1357 8.13671 14.3865 8.76696 14.3865 9.56162V24.2218C14.3865 24.9069 14.6311 25.5782 15.1204 26.0989C15.8542 26.8661 16.955 27.2223 18.0558 27.0579L33.1609 24.7561H42.7468C44.6426 24.7561 46.1714 26.1263 46.1867 27.8252C46.1867 28.4691 45.6058 29.0035 44.8872 29.0035H33.3443C33.1456 29.0035 32.9468 29.0446 32.7634 29.1131L16.3435 35.1553C13.9432 36.0459 11.2065 36.0185 8.8215 35.0731C5.32042 33.703 3.05771 30.6065 3.05771 27.1812V6.45147C3.05771 5.72531 2.44617 5.08136 1.63588 5.04026C0.749139 4.98545 0 5.6157 0 6.41037V27.1949C0 31.3327 2.52261 35.1142 6.49764 37.1145V42.3621C6.49764 43.4445 6.29888 44.5268 5.91667 45.5681C3.13415 53.09 2.90483 61.1052 5.25926 68.7504L5.62619 69.9287C5.80965 70.5315 6.42119 70.9289 7.09389 70.9289C7.24678 70.9289 7.39966 70.9152 7.55255 70.8604C8.34755 70.6411 8.77563 69.8602 8.56159 69.1477L8.20995 68.0105C6.0084 60.8723 6.23773 53.3778 8.85207 46.3628C9.34131 45.0749 9.57064 43.7048 9.57064 42.3484V38.1969C10.595 38.4298 11.6499 38.5395 12.6895 38.5395C14.3254 38.5395 15.9765 38.2517 17.5054 37.69L33.6501 31.7574H44.8872C45.514 31.7574 46.1103 31.6341 46.6454 31.4286L47.2722 32.2918C47.2875 32.3055 47.2875 32.3192 47.3028 32.3192C48.3271 33.7304 49.1068 35.2649 49.6572 36.8679C50.0547 38.0051 50.651 39.5533 50.6663 39.5259C52.3327 46.3217 50.2382 53.597 44.612 58.913C42.6551 60.7627 41.5849 63.174 41.5849 65.7225V69.5451C41.5849 70.2712 42.1964 70.9152 43.0067 70.9563C43.8934 71.0111 44.6426 70.3808 44.6426 69.5862V65.7225C44.6426 63.8865 45.4223 62.1328 46.8288 60.8038C51.0026 56.8578 53.6017 51.6925 54.1521 46.2669C54.5343 42.458 53.8922 38.6217 52.3327 35.1005Z" fill="white"/>
</svg>
