<svg width="63" height="63" viewBox="0 0 63 63" fill="none" xmlns="http://www.w3.org/2000/svg">
<path d="M58.6353 33.089H46.041C45.2194 33.089 44.5462 33.7406 44.5192 34.5618C44.503 35.0565 44.4717 35.5111 44.4234 35.9518C43.6804 42.7428 37.9737 47.8639 31.1488 47.8639C30.6624 47.8639 30.1699 47.8369 29.6847 47.7839C26.1609 47.3984 23.0273 45.6245 20.8614 42.7891C19.1269 40.518 18.0619 37.5791 17.863 34.5131C17.811 33.7122 17.1462 33.089 16.3437 33.089H4.36465C1.958 33.089 0 35.047 0 37.4536V56.8514C0 59.258 1.958 61.216 4.36465 61.216H58.6353C61.042 61.216 63 59.258 63 56.8514V37.4536C63 35.047 61.042 33.089 58.6353 33.089ZM59.9549 56.8514C59.9549 57.579 59.3629 58.1709 58.6353 58.1709H4.36465C3.63707 58.1709 3.04511 57.579 3.04511 56.8514V37.4536C3.04511 36.7261 3.63707 36.1341 4.36465 36.1341H14.9703C15.4109 39.2756 16.6198 42.2523 18.4418 44.6375C21.1184 48.1416 24.9934 50.334 29.3538 50.8107C29.9484 50.8759 30.5524 50.9088 31.149 50.9088C39.5301 50.9088 46.5386 44.6208 47.4505 36.2831C47.4559 36.2336 47.4612 36.1838 47.4663 36.1341H58.6355C59.3631 36.1341 59.9551 36.7261 59.9551 37.4536V56.8514H59.9549Z" fill="#DCA41E"/>
<path d="M30.0157 44.7566C30.0157 44.7568 30.0159 44.7568 30.0161 44.7568C30.3925 44.7978 30.7735 44.8187 31.1487 44.8187C36.4171 44.8187 40.8226 40.8643 41.3961 35.6205C41.7899 32.0195 40.8278 28.6019 39.8971 25.2967C38.2344 19.3911 36.6638 13.813 41.486 6.24453C42.2499 5.04577 42.0382 3.48404 40.9825 2.53133C40.4484 2.04939 39.7582 1.78406 39.0389 1.78406C38.3879 1.78406 37.7484 2.00676 37.2379 2.41094C31.3397 7.08214 26.8798 12.9371 23.9817 19.8129C21.0466 26.7765 20.8584 32.0914 20.8706 33.5545C20.9208 39.5665 24.6813 44.1732 30.0157 44.7566ZM38.474 5.32694C33.4688 13.7016 35.3239 20.29 36.9658 26.122C37.857 29.2866 38.6985 32.2759 38.369 35.2894C37.9646 38.9859 34.8606 41.7734 31.1487 41.7734C30.8833 41.7734 30.6135 41.7586 30.3464 41.7294L30.3468 41.7296C25.971 41.2509 23.9456 37.143 23.9155 33.5289C23.8686 27.9009 26.8727 14.8995 38.474 5.32694Z" fill="#DCA41E"/>
<path d="M28.2713 36.0612C28.2806 36.0577 28.2899 36.0545 28.2991 36.051C28.9934 35.8005 29.3998 35.0677 29.2256 34.3505C28.6627 32.0317 29.1345 29.1959 29.4513 28.0396C29.6684 27.2523 29.2067 26.438 28.4197 26.2198C27.6324 26.0014 26.8163 26.4634 26.5979 27.2511C26.538 27.4671 25.4722 31.4176 26.349 35.0419C26.5532 35.8864 27.4546 36.3574 28.2713 36.0612Z" fill="#DCA41E"/>
<path d="M29.5052 39.628C30.3228 39.628 30.9856 38.9652 30.9856 38.1477C30.9856 37.3301 30.3228 36.6674 29.5052 36.6674C28.6877 36.6674 28.0249 37.3301 28.0249 38.1477C28.0249 38.9652 28.6877 39.628 29.5052 39.628Z" fill="#DCA41E"/>
</svg>
