<svg width="76" height="76" viewBox="0 0 76 76" fill="none" xmlns="http://www.w3.org/2000/svg">
<path d="M58.8408 73.3281L50.8697 65.357C50.5877 65.0749 50.2166 64.9265 49.8158 64.9265H45.5408C45.526 64.9265 45.526 64.9265 45.5111 64.9265C43.151 64.9265 40.7908 64.496 38.5643 63.6648L41.1322 61.9429C42.1861 61.2453 42.8838 60.1617 43.1213 58.9148C43.3588 57.6679 43.0768 56.421 42.3494 55.382C41.4439 54.0906 39.9893 53.3929 38.5197 53.3929C38.49 53.3929 38.4752 53.3929 38.4455 53.3929L44.3533 47.4851C46.1494 45.689 46.1494 42.7796 44.3533 40.9835C43.9229 40.5531 43.4033 40.2117 42.8541 39.9742C43.2697 39.2765 43.4775 38.475 43.4775 37.6437C43.4775 36.4117 43.0025 35.2539 42.1268 34.3929C41.251 33.5171 40.108 33.0421 38.876 33.0421C38.0447 33.0421 37.2432 33.2648 36.5455 33.6656C36.3229 33.1164 35.9814 32.5968 35.5361 32.1664C34.6604 31.2906 33.5174 30.8156 32.2854 30.8156C31.0533 30.8156 29.8955 31.2906 29.0346 32.1664L26.9119 34.289C26.6893 33.7843 26.3775 33.339 25.9768 32.9382C25.101 32.0624 23.958 31.5875 22.726 31.5875C21.4939 31.5875 20.3361 32.0624 19.4752 32.9382L18.54 33.8734L14.7104 30.0734C13.5971 28.9601 13.5971 27.1492 14.7104 26.0359C15.7494 24.9968 17.3971 24.9226 18.5252 25.8429L22.2361 29.5539C22.533 29.8507 22.9041 29.9843 23.29 29.9843C23.676 29.9843 24.0471 29.8359 24.3439 29.5539C24.9229 28.975 24.9229 28.0398 24.3439 27.4609L17.9611 21.0781C16.8479 19.9648 16.8479 18.1539 17.9611 17.0406C19.0744 15.9273 20.8854 15.9273 21.9986 17.0406L33.1908 28.2624C33.4877 28.5593 33.8588 28.6929 34.2447 28.6929C34.6307 28.6929 35.0018 28.5445 35.2986 28.2624C35.8775 27.6835 35.8775 26.7484 35.2986 26.1695L26.7932 17.6343C25.8877 16.521 25.9471 14.8585 26.9861 13.8195C28.0994 12.7062 29.9104 12.7062 31.0236 13.8195L34.1408 16.9367C34.7197 17.5156 35.6549 17.5156 36.2338 16.9367C36.8127 16.3578 36.8127 15.4226 36.2338 14.8437L33.1166 11.7265C30.8455 9.45542 27.1494 9.45542 24.8932 11.7265C24.1361 12.4835 23.6463 13.389 23.3939 14.339C22.4143 13.6265 21.2416 13.2406 19.9947 13.2406C18.4361 13.2406 16.9814 13.8492 15.883 14.9476C13.8346 16.996 13.6416 20.1875 15.2744 22.4585C14.3096 22.7109 13.4041 23.2156 12.6619 23.9578C10.5244 26.0953 10.4057 29.5093 12.3057 31.7953C11.3705 32.0476 10.4799 32.5523 9.75254 33.2796C7.48145 35.5507 7.48145 39.2468 9.75254 41.5031L10.4205 42.171C7.91191 45.1843 6.56113 48.9249 6.56113 52.8882V55.3523L0.475195 61.4382C-0.103711 62.0171 -0.103711 62.9523 0.475195 63.5312C0.77207 63.8281 1.14316 63.9617 1.5291 63.9617C1.91504 63.9617 2.28613 63.8132 2.58301 63.5312L9.11426 56.9999C9.39629 56.7179 9.54473 56.3468 9.54473 55.946V52.8734C9.54473 49.1773 10.9697 45.7187 13.5822 43.1062L20.9447 35.7437L21.6572 35.0312C21.9689 34.7195 22.3697 34.5562 22.815 34.5562C23.2604 34.5562 23.6611 34.7195 23.9729 35.0312C24.2846 35.3429 24.4479 35.7437 24.4479 36.189C24.4479 36.5601 24.3291 36.9164 24.0916 37.2132L22.0729 39.1874C21.4939 39.7664 21.4939 40.7015 22.0729 41.2804C22.3697 41.5773 22.7408 41.7109 23.1268 41.7109C23.5127 41.7109 23.8838 41.5625 24.1807 41.2804L31.1721 34.289C31.4838 33.9773 31.8846 33.814 32.3299 33.814C32.7752 33.814 33.176 33.9773 33.4877 34.289C34.0815 34.8828 34.126 35.8179 33.6064 36.4562L26.4814 43.596C25.9025 44.1749 25.9025 45.1101 26.4814 45.689C26.7783 45.9859 27.1494 46.1195 27.5354 46.1195C27.9213 46.1195 28.2924 45.971 28.5893 45.689L37.7627 36.5007C38.0744 36.189 38.4752 36.0257 38.9205 36.0257C39.3658 36.0257 39.7666 36.189 40.0783 36.5007C40.7166 37.139 40.7166 38.1781 40.0783 38.8015L30.89 47.9749C30.3111 48.5539 30.3111 49.489 30.89 50.0679C31.469 50.6468 32.4041 50.6468 32.983 50.0679L40.1229 42.9429C40.7611 42.4382 41.6963 42.4679 42.29 43.0617C42.9283 43.7 42.9283 44.739 42.29 45.3624L32.2705 55.382C31.558 56.0945 31.4986 57.1632 32.1221 57.9499C32.7307 58.7367 33.7994 58.9296 34.6604 58.4101L37.6885 56.5695C38.4455 56.1093 39.4549 56.3171 39.9596 57.0445C40.2268 57.4156 40.3158 57.8757 40.2416 58.3359C40.1525 58.7812 39.9002 59.182 39.5143 59.4343L32.508 64.1249C30.2221 65.6539 27.5799 66.4554 24.8338 66.4554H24.8189H20.0541C19.6533 66.4554 19.2822 66.6187 19.0002 66.8859L12.4689 73.4171C11.89 73.996 11.89 74.9312 12.4689 75.5101C12.7658 75.807 13.1369 75.9406 13.5229 75.9406C13.9088 75.9406 14.2799 75.7921 14.5768 75.5101L20.6627 69.4242H24.8041C24.8189 69.4242 24.8189 69.4242 24.8338 69.4242C28.1736 69.4242 31.3947 68.4445 34.1705 66.589L35.6697 65.5796C38.7275 67.064 42.1416 67.8359 45.5408 67.8359C45.5557 67.8359 45.5557 67.8359 45.5705 67.8359H49.2369L56.7775 75.3765C57.0744 75.6734 57.4455 75.807 57.8315 75.807C58.2174 75.807 58.5885 75.6585 58.8854 75.3765C59.4197 74.8421 59.4197 73.907 58.8408 73.3281ZM15.4971 36.9609L12.4393 40.0187L11.8307 39.4101C10.7174 38.2968 10.7174 36.4859 11.8307 35.3726C12.8697 34.3335 14.5174 34.2593 15.6455 35.1796L16.4619 35.996L15.4971 36.9609Z" fill="#DCA41E"/>
<path d="M75.5695 56.6141C75.2875 56.332 74.9164 56.1836 74.5156 56.1836C74.1148 56.1836 73.7437 56.3469 73.4617 56.6141C73.1797 56.8961 73.0312 57.2672 73.0312 57.668C73.0312 58.0539 73.1945 58.4398 73.4617 58.7219C73.7437 59.0039 74.1148 59.1523 74.5156 59.1523C74.9164 59.1523 75.2875 58.9891 75.5695 58.7219C75.8516 58.4398 76 58.0688 76 57.668C76 57.2672 75.8367 56.8812 75.5695 56.6141Z" fill="#DCA41E"/>
<path d="M71.5768 52.6211L68.0291 49.0734L68.0439 43.0766C68.0439 38.5492 66.7228 34.1555 64.1994 30.3852L57.6682 20.6477C56.7775 19.3117 55.4119 18.4211 53.8385 18.1242C52.265 17.8273 50.6768 18.1687 49.3557 19.0891C47.2033 20.5883 46.3572 23.3047 47.1143 25.7242L43.24 21.85C42.6611 21.2711 41.726 21.2711 41.1471 21.85C40.5682 22.4289 40.5682 23.3641 41.1471 23.943L49.4744 32.2703C50.2463 33.0422 51.4338 33.1164 52.2799 32.4336C53.1408 31.7656 53.3486 30.593 52.7846 29.6578L50.2314 25.4422C49.4299 24.1211 49.801 22.3844 51.0627 21.5086C51.7158 21.0484 52.5025 20.8852 53.2893 21.0187C54.076 21.1672 54.7439 21.6125 55.1893 22.2805L61.7205 32.018C63.9174 35.2984 65.0752 39.1133 65.0752 43.0469L65.0603 49.6672C65.0603 50.068 65.2088 50.4391 65.4908 50.7211L69.4689 54.6992C69.7658 54.9961 70.1369 55.1297 70.5228 55.1297C70.9088 55.1297 71.2799 54.9812 71.5768 54.6992C72.1557 54.1352 72.1557 53.2 71.5768 52.6211Z" fill="#DCA41E"/>
<path d="M39.7365 18.3469C39.4545 18.0648 39.0834 17.9164 38.6826 17.9164C38.2967 17.9164 37.9107 18.0797 37.6287 18.3469C37.3467 18.6289 37.1982 19 37.1982 19.4008C37.1982 19.7867 37.3615 20.1726 37.6287 20.4547C37.9107 20.7367 38.2818 20.8851 38.6826 20.8851C39.0686 20.8851 39.4545 20.7218 39.7365 20.4547C40.0186 20.1726 40.167 19.8015 40.167 19.4008C40.167 19 40.0037 18.6289 39.7365 18.3469Z" fill="#DCA41E"/>
<path d="M53.5115 41.3843C54.0904 40.8054 54.0904 39.8703 53.5115 39.2914C52.9326 38.7125 51.9975 38.7125 51.4186 39.2914L50.7654 39.9296C47.9896 42.7054 47.9896 47.2179 50.7654 49.9788C51.0623 50.2757 51.4334 50.4093 51.8193 50.4093C52.2053 50.4093 52.5764 50.2609 52.8732 49.9788C53.4521 49.3999 53.4521 48.4648 52.8732 47.8859C51.2553 46.2679 51.2553 43.6406 52.8732 42.0226L53.5115 41.3843Z" fill="#DCA41E"/>
</svg>
