<svg width="72" height="67" viewBox="0 0 72 67" fill="none" xmlns="http://www.w3.org/2000/svg">
<g clip-path="url(#clip0)">
<path d="M66.0474 2.49766C64.4335 0.913549 62.2552 0.0286591 59.9877 0.0361C57.7202 0.0435409 55.5478 0.942708 53.9444 2.53737C52.3411 4.13204 51.437 6.29273 51.4295 8.54792C51.422 10.8031 52.3117 12.9697 53.9045 14.5748C54.1972 14.8646 54.4295 15.2091 54.588 15.5885C54.7465 15.9678 54.8281 16.3746 54.8281 16.7854C54.8281 17.1962 54.7465 17.6029 54.588 17.9823C54.4295 18.3616 54.1972 18.7061 53.9045 18.9959C52.761 20.1292 51.9622 21.5605 51.6 23.1251C51.2378 24.6898 51.3269 26.3243 51.857 27.8409C52.3871 29.3574 53.3367 30.6944 54.5967 31.6982C55.8567 32.7019 57.3759 33.3317 58.9796 33.5151V34.0983C58.9763 36.0633 58.19 37.9468 56.793 39.3363C55.396 40.7257 53.5022 41.5077 51.5265 41.5111H47.9181C45.2886 41.5143 42.7535 42.4855 40.8013 44.2375C38.8492 45.9895 37.6183 48.3983 37.3459 50.9994C36.9043 50.9705 36.4557 50.9556 36.0001 50.9546C35.5445 50.9537 35.0959 50.9686 34.6543 50.9994C34.3819 48.3983 33.151 45.9895 31.1989 44.2375C29.2467 42.4855 26.7116 41.5143 24.0821 41.5111H20.4779C18.5023 41.5077 16.6085 40.7257 15.2115 39.3363C13.8145 37.9468 13.0281 36.0633 13.0248 34.0983V33.5151C14.6286 33.3317 16.1477 32.7019 17.4077 31.6982C18.6677 30.6944 19.6173 29.3574 20.1474 27.8409C20.6775 26.3243 20.7666 24.6898 20.4044 23.1251C20.0422 21.5605 19.2435 20.1292 18.1 18.9959C17.8072 18.7061 17.5749 18.3616 17.4164 17.9823C17.2579 17.6029 17.1763 17.1962 17.1763 16.7854C17.1763 16.3746 17.2579 15.9678 17.4164 15.5885C17.5749 15.2091 17.8072 14.8646 18.1 14.5748C19.7104 12.9727 20.615 10.8 20.6147 8.53456C20.6145 6.26912 19.7094 4.09658 18.0985 2.49486C16.4877 0.89314 14.3031 -0.00654886 12.0254 -0.00628656C9.74759 -0.00602427 7.56321 0.894168 5.95277 2.49626C4.06544 4.37209 2.56825 6.59942 1.54677 9.05097C0.525278 11.5025 -0.000488281 14.1302 -0.000488281 16.784C-0.000488281 19.4377 0.525278 22.0654 1.54677 24.517C2.56825 26.9685 4.06544 29.1959 5.95277 31.0717C7.10297 32.2207 8.56021 33.0177 10.1518 33.3682V34.0983C10.1548 36.8212 11.2437 39.4318 13.1796 41.3571C15.1154 43.2825 17.7402 44.3655 20.4779 44.3685H24.0821C26.0216 44.371 27.8899 45.095 29.3198 46.3981C30.7497 47.7013 31.6378 49.4892 31.8095 51.4106C26.9579 52.4973 23.5646 55.4358 23.5646 58.98C23.5646 63.478 29.0265 67.0011 36.0001 67.0011C42.9737 67.0011 48.4356 63.478 48.4356 58.98C48.4356 55.4344 45.0423 52.4973 40.1907 51.4106C40.3624 49.4892 41.2505 47.7013 42.6804 46.3981C44.1104 45.095 45.9787 44.371 47.9181 44.3685H51.5223C54.26 44.3655 56.8848 43.2825 58.8207 41.3571C60.7565 39.4318 61.8454 36.8212 61.8484 34.0983V33.3682C63.44 33.0177 64.8973 32.2207 66.0474 31.0717C67.9347 29.196 69.4319 26.9688 70.4534 24.5173C71.4748 22.0659 72.0006 19.4383 72.0006 16.7847C72.0006 14.1311 71.4748 11.5035 70.4534 9.05202C69.4319 6.60058 67.9347 4.37337 66.0474 2.49766ZM7.98199 29.0549C6.36071 27.4442 5.07454 25.5314 4.19701 23.426C3.31948 21.3206 2.8678 19.0638 2.8678 16.7847C2.8678 14.5055 3.31948 12.2487 4.19701 10.1433C5.07454 8.03792 6.36071 6.12518 7.98199 4.51448C8.51134 3.97932 9.14198 3.55369 9.83755 3.26216C10.5331 2.97062 11.2798 2.81894 12.0346 2.81587C12.7894 2.8128 13.5374 2.9584 14.2353 3.24427C14.9333 3.53014 15.5674 3.95062 16.1011 4.48146C16.6349 5.0123 17.0576 5.64299 17.3451 6.33715C17.6325 7.03131 17.7789 7.7752 17.7758 8.52591C17.7727 9.27663 17.6202 10.0193 17.3271 10.7111C17.0339 11.4029 16.606 12.0301 16.0679 12.5566C15.509 13.1113 15.0656 13.7703 14.763 14.4956C14.4605 15.221 14.3048 15.9986 14.3048 16.784C14.3048 17.5693 14.4605 18.3469 14.763 19.0723C15.0656 19.7977 15.509 20.4566 16.0679 21.0113C16.606 21.5378 17.0339 22.165 17.3271 22.8568C17.6202 23.5486 17.7727 24.2913 17.7758 25.042C17.7789 25.7927 17.6325 26.5366 17.3451 27.2308C17.0576 27.925 16.6349 28.5557 16.1011 29.0865C15.5674 29.6173 14.9333 30.0378 14.2353 30.3237C13.5374 30.6095 12.7894 30.7551 12.0346 30.7521C11.2798 30.749 10.5331 30.5973 9.83755 30.3058C9.14198 30.0143 8.51134 29.5886 7.98199 29.0535V29.0549ZM43.0398 55.5379C43.9834 56.0974 45.571 57.3044 45.571 58.98C45.571 60.6555 43.9862 61.8556 43.0398 62.422C41.1821 63.5409 38.6804 64.1493 36.0015 64.1493C33.3226 64.1493 30.8209 63.5353 28.9632 62.422C28.0196 61.8626 26.432 60.6555 26.432 58.98C26.432 57.3044 28.0154 56.1044 28.9632 55.5379C30.8209 54.419 33.3226 53.8106 36.0015 53.8106C38.6804 53.8106 41.1807 54.4232 43.0384 55.5365L43.0398 55.5379ZM64.0182 29.0549C62.943 30.1069 61.4933 30.6938 59.9849 30.6877C58.4766 30.6816 57.0318 30.0829 55.9652 29.0221C54.8987 27.9613 54.2967 26.5243 54.2906 25.0242C54.2844 23.524 54.8745 22.0822 55.9323 21.0127C56.4912 20.458 56.9346 19.7991 57.2372 19.0737C57.5397 18.3483 57.6955 17.5707 57.6955 16.7854C57.6955 16 57.5397 15.2224 57.2372 14.497C56.9346 13.7717 56.4912 13.1127 55.9323 12.558C54.8745 11.4886 54.2844 10.0468 54.2906 8.54658C54.2967 7.04641 54.8987 5.60943 55.9652 4.54864C57.0318 3.48785 58.4766 2.88918 59.9849 2.88305C61.4933 2.87691 62.943 3.4638 64.0182 4.51588C65.6395 6.12658 66.9257 8.03932 67.8032 10.1447C68.6807 12.2501 69.1324 14.5069 69.1324 16.7861C69.1324 19.0652 68.6807 21.322 67.8032 23.4274C66.9257 25.5328 65.6395 27.4456 64.0182 29.0563V29.0549Z" fill="#6D7831"/>
<path d="M34.6148 60.0432C34.0955 60.0012 33.579 59.9297 33.0679 59.8292C32.8816 59.7884 32.6891 59.7849 32.5014 59.819C32.3138 59.8531 32.1349 59.924 31.9752 60.0277C31.8154 60.1313 31.6781 60.2657 31.5712 60.4228C31.4643 60.5799 31.39 60.7566 31.3526 60.9426C31.3152 61.1286 31.3154 61.3202 31.3534 61.5061C31.3913 61.692 31.4661 61.8685 31.5735 62.0253C31.6808 62.1821 31.8185 62.316 31.9785 62.4193C32.1386 62.5225 32.3177 62.5929 32.5054 62.6265C33.121 62.7482 33.7431 62.8351 34.3687 62.8866C34.4095 62.8866 34.4517 62.8866 34.4924 62.8866C34.8613 62.8848 35.2152 62.7417 35.4807 62.4872C35.7463 62.2326 35.903 61.8861 35.9184 61.5196C35.9338 61.1531 35.8066 60.7947 35.5633 60.519C35.3201 60.2433 34.9793 60.0714 34.612 60.039L34.6148 60.0432Z" fill="#6D7831"/>
<path d="M42.8118 57.5522C42.454 57.5521 42.109 57.685 41.8447 57.9249C41.5803 58.1648 41.4157 58.4943 41.383 58.8487C41.196 59.0599 40.4563 59.5089 39.0191 59.8082C38.6462 59.8859 38.3195 60.1078 38.111 60.425C37.9026 60.7423 37.8294 61.1289 37.9075 61.4998C37.9856 61.8708 38.2087 62.1957 38.5277 62.403C38.8467 62.6104 39.2354 62.6832 39.6084 62.6055C42.5615 61.9901 44.249 60.6698 44.249 58.983C44.2495 58.7951 44.2128 58.6089 44.1407 58.4351C44.0687 58.2614 43.9629 58.1035 43.8294 57.9705C43.6958 57.8376 43.5372 57.7322 43.3625 57.6604C43.1879 57.5886 43.0008 57.5518 42.8118 57.5522Z" fill="#6D7831"/>
</g>
<defs>
<clipPath id="clip0">
<rect width="72" height="67" fill="white"/>
</clipPath>
</defs>
</svg>
