<svg width="82" height="82" viewBox="0 0 82 82" fill="none" xmlns="http://www.w3.org/2000/svg">
<path d="M73.1679 30.0837C71.6987 28.3925 69.1192 28.2046 67.4279 29.6908C66.8983 30.1521 66.4883 30.767 66.2492 31.4333H62.4567L58.7667 27.7262C58.22 27.1966 57.3658 27.2137 56.8362 27.7604C56.3237 28.29 56.3237 29.1271 56.8362 29.6566L59.9625 32.8L55.4696 37.2929C55.2133 37.5491 55.0767 37.8908 55.0767 38.2666V60.1333C55.0767 60.885 55.6917 61.5 56.4433 61.5C57.195 61.5 57.81 60.885 57.81 60.1333V38.8304L62.4737 34.1666H66.2492C66.7958 35.7212 68.2137 36.7975 69.8537 36.9C69.9392 36.9 70.0246 36.9 70.11 36.9C72.3821 36.9 74.21 35.055 74.21 32.8C74.1929 31.792 73.8342 30.8354 73.1679 30.0837ZM71.4596 32.8854C71.4425 33.2441 71.2717 33.5858 70.9983 33.825C70.725 34.0641 70.3662 34.1837 70.0075 34.1666C69.2558 34.1154 68.675 33.4662 68.7262 32.7145C68.7775 31.997 69.3754 31.4333 70.0929 31.4333H70.1783C70.9471 31.4845 71.5108 32.1337 71.4596 32.8854Z" fill="#6D7831"/>
<path d="M61.8928 12.3C59.6207 12.3 57.7928 14.128 57.7928 16.4C57.7928 17.015 57.9295 17.613 58.2028 18.1596H58.1857L56.4261 19.9192L54.6665 18.1596C54.1199 17.63 53.2657 17.6471 52.7361 18.1938C52.2236 18.7234 52.2236 19.5605 52.7361 20.09L54.4957 21.8667L50.0028 26.3596C49.7465 26.6159 49.6099 26.9576 49.6099 27.3334V68.3334C49.6099 69.0851 50.2249 69.7001 50.9765 69.7001C51.7282 69.7001 52.3432 69.0851 52.3432 68.3334V27.8971L60.1503 20.09V20.073C60.697 20.3463 61.2949 20.483 61.9099 20.483C64.182 20.483 66.0099 18.655 66.0099 16.383C66.0099 14.1109 64.1649 12.3 61.8928 12.3ZM61.8928 17.7667C61.1411 17.7667 60.5261 17.1517 60.5261 16.4C60.5261 15.6484 61.1411 15.0334 61.8928 15.0334C62.6445 15.0334 63.2594 15.6484 63.2594 16.4C63.2594 17.1517 62.6615 17.7667 61.8928 17.7667Z" fill="#6D7831"/>
<path d="M40.9999 19.5262L35.5332 14.0596C35.277 13.8033 34.9353 13.6666 34.5595 13.6666H31.5699C30.8182 11.5312 28.4778 10.4208 26.3424 11.1725C24.207 11.9241 23.0966 14.2646 23.8482 16.4C24.5999 18.5354 26.9403 19.6458 29.0757 18.8941C30.2374 18.4841 31.1599 17.5616 31.5699 16.4H33.9957L38.6595 21.0637V26.7696L34.1666 22.2596C33.6199 21.73 32.7657 21.7471 32.2362 22.2937C31.7237 22.8233 31.7237 23.6604 32.2362 24.19L38.6766 30.6304V68.3333C38.6766 69.085 39.2916 69.7 40.0432 69.7C40.7949 69.7 41.4099 69.085 41.4099 68.3333V20.5C41.3928 20.1412 41.2562 19.7825 40.9999 19.5262ZM27.7262 16.4C26.9745 16.4 26.3595 15.785 26.3595 15.0333C26.3595 14.2816 26.9745 13.6666 27.7262 13.6666C28.4778 13.6666 29.0928 14.2816 29.0928 15.0333C29.0928 15.785 28.4949 16.4 27.7262 16.4Z" fill="#6D7831"/>
<path d="M35.5335 34.5596L28.7001 27.7263H28.6831C28.9564 27.1796 29.0931 26.5817 29.0931 25.9667C29.0931 23.6946 27.2651 21.8667 24.9931 21.8667C22.721 21.8667 20.8931 23.6946 20.8931 25.9667C20.8931 28.2388 22.721 30.0667 24.9931 30.0667C25.6081 30.0667 26.206 29.93 26.7526 29.6567V29.6738L33.1931 36.0971V39.0696L30.0668 35.9263C29.5201 35.3967 28.666 35.4138 28.1364 35.9604C27.6239 36.49 27.6239 37.3271 28.1364 37.8567L33.2101 42.9304V60.1334C33.2101 60.885 33.8251 61.5 34.5768 61.5C35.3285 61.5 35.9435 60.885 35.9435 60.1334V35.5334C35.9264 35.1746 35.7897 34.8159 35.5335 34.5596ZM24.9931 27.3334C24.2414 27.3334 23.6264 26.7184 23.6264 25.9667C23.6264 25.215 24.2414 24.6 24.9931 24.6C25.7447 24.6 26.3597 25.215 26.3597 25.9667C26.3597 26.7184 25.7618 27.3334 24.9931 27.3334Z" fill="#6D7831"/>
<path d="M52.6168 13.3762L49.2001 9.95956H49.1831C49.4564 9.41289 49.5931 8.81498 49.5931 8.19998C49.5931 5.92789 47.7651 4.09998 45.4931 4.09998C43.221 4.09998 41.3931 5.92789 41.3931 8.19998C41.3931 10.4721 43.221 12.3 45.4931 12.3C46.1081 12.3 46.706 12.1633 47.2526 11.89V11.9071L49.7126 14.35L44.5364 19.5262C44.2801 19.7825 44.1435 20.1241 44.1435 20.5V38.2666C44.1435 39.0183 44.7585 39.6333 45.5101 39.6333C46.2618 39.6333 46.8768 39.0183 46.8768 38.2666V21.0637L52.6168 15.3066C53.1464 14.7771 53.1464 13.9058 52.6168 13.3762ZM45.4931 9.56664C44.7414 9.56664 44.1264 8.95164 44.1264 8.19998C44.1264 7.44831 44.7414 6.83331 45.4931 6.83331C46.2447 6.83331 46.8597 7.44831 46.8597 8.19998C46.8597 8.95164 46.2618 9.56664 45.4931 9.56664Z" fill="#6D7831"/>
<path d="M45.4931 42.3667C44.7415 42.3667 44.1265 42.9817 44.1265 43.7334V72.4334C44.1265 73.185 44.7415 73.8 45.4931 73.8C46.2448 73.8 46.8598 73.185 46.8598 72.4334V43.7334C46.8598 42.9817 46.2619 42.3667 45.4931 42.3667Z" fill="#6D7831"/>
</svg>
