<svg width="69" height="69" viewBox="0 0 69 69" fill="none" xmlns="http://www.w3.org/2000/svg">
<path d="M64.0137 59.0273H49.8633C47.9683 59.0273 46.4268 60.5689 46.4268 62.4638V62.666H5.0649C3.75834 62.666 2.69531 61.603 2.69531 60.2964C2.69531 58.9897 3.75834 57.9267 5.0649 57.9267H15.4082C16.1523 57.9267 16.7558 57.3232 16.7558 56.579C16.7558 55.8349 16.1523 55.2314 15.4082 55.2314H5.0649C2.27201 55.2314 0 57.5035 0 60.2964C0 63.0893 2.27201 65.3613 5.0649 65.3613H46.4268V65.5635C46.4268 67.4584 47.9683 69 49.8633 69H64.0137C66.7632 69 69 66.7631 69 64.0137C69 61.2642 66.7632 59.0273 64.0137 59.0273ZM60.375 66.3047H49.8633C49.4545 66.3047 49.1221 65.9722 49.1221 65.5635V62.4638C49.1221 62.0551 49.4545 61.7226 49.8633 61.7226H60.375V66.3047ZM64.0137 66.3047H63.0703V61.7226H64.0137C65.277 61.7226 66.3047 62.7504 66.3047 64.0137C66.3047 65.2769 65.277 66.3047 64.0137 66.3047Z" fill="#6D7831"/>
<path d="M22.2013 55.6259C21.9507 55.3752 21.603 55.231 21.2485 55.231C20.8928 55.231 20.5464 55.3751 20.2957 55.6259C20.0437 55.8765 19.9009 56.2242 19.9009 56.5787C19.9009 56.9331 20.0437 57.2808 20.2957 57.5313C20.5464 57.7833 20.8941 57.9263 21.2485 57.9263C21.603 57.9263 21.9493 57.7833 22.2013 57.5313C22.4519 57.2808 22.5962 56.9331 22.5962 56.5787C22.5962 56.2242 22.452 55.8765 22.2013 55.6259Z" fill="#6D7831"/>
<path d="M62.271 22.3617C62.0205 22.1109 61.6728 21.9668 61.3184 21.9668C60.9639 21.9668 60.6162 22.1109 60.3656 22.3617C60.1149 22.6125 59.9707 22.96 59.9707 23.3145C59.9707 23.6689 60.1148 24.0166 60.3656 24.2671C60.6162 24.5178 60.9639 24.6621 61.3184 24.6621C61.6728 24.6621 62.0205 24.5179 62.271 24.2671C62.5218 24.0166 62.666 23.6689 62.666 23.3145C62.666 22.96 62.5218 22.6123 62.271 22.3617Z" fill="#6D7831"/>
<path d="M61.3184 18.5977C62.0625 18.5977 62.666 17.9942 62.666 17.25V6.73828C62.666 3.02279 59.6432 0 55.9277 0H13.0723C9.35678 0 6.33398 3.02279 6.33398 6.73828V40.9688C6.33398 44.6842 9.35678 47.707 13.0723 47.707H27.7617V51.6961C25.6626 52.3273 24.1287 54.277 24.1287 56.5791V58.2188C24.1287 58.9629 24.7322 59.5664 25.4764 59.5664H43.5236C44.2678 59.5664 44.8713 58.9629 44.8713 58.2188V56.5791C44.8713 54.277 43.3374 52.3273 41.2383 51.6961V47.707H55.9277C59.6432 47.707 62.666 44.6842 62.666 40.9688V28.795C62.666 28.0508 62.0625 27.4473 61.3184 27.4473C60.5742 27.4473 59.9707 28.0508 59.9707 28.795V40.9688C59.9707 43.198 58.157 45.0117 55.9277 45.0117H13.0723C10.843 45.0117 9.0293 43.198 9.0293 40.9688V6.73828C9.0293 4.50899 10.843 2.69531 13.0723 2.69531H55.9277C58.157 2.69531 59.9707 4.50899 59.9707 6.73828V17.25C59.9707 17.9942 60.5742 18.5977 61.3184 18.5977ZM30.457 47.707H38.543V51.4805H30.457V47.707ZM39.7727 54.1758C41.0979 54.1758 42.176 55.2539 42.176 56.5791V56.8711H26.824V56.5791C26.824 55.2539 27.9021 54.1758 29.2273 54.1758H39.7727Z" fill="#6D7831"/>
<path d="M54.5801 5.39062H14.4199C12.9337 5.39062 11.7246 6.59974 11.7246 8.08594V39.6211C11.7246 41.1073 12.9337 42.3164 14.4199 42.3164H54.5801C56.0663 42.3164 57.2754 41.1073 57.2754 39.6211V8.08594C57.2754 6.59974 56.0663 5.39062 54.5801 5.39062ZM54.5801 39.6211H14.4199V8.08594H54.5801L54.5818 39.621C54.5818 39.621 54.5813 39.6211 54.5801 39.6211Z" fill="#6D7831"/>
<path d="M51.587 26.6233L41.1895 13.4116C40.7825 12.8945 40.0616 12.7468 39.4839 13.0625C36.4097 14.7435 32.5903 14.7435 29.5162 13.0625C28.9383 12.7465 28.2175 12.8945 27.8106 13.4116L17.4132 26.6233C16.991 27.1597 17.0366 27.9271 17.5192 28.4098C22.2009 33.0913 28.3505 35.432 34.5001 35.432C40.6497 35.432 46.7994 33.0913 51.481 28.4098C51.9636 27.9271 52.0093 27.1598 51.587 26.6233ZM20.2916 27.3239L29.2561 15.9331C32.5758 17.376 36.4242 17.376 39.7438 15.9331L48.7083 27.3239C40.6426 34.5422 28.3574 34.5422 20.2916 27.3239Z" fill="#6D7831"/>
<path d="M23.2246 10.7812H18.4629C17.7187 10.7812 17.1152 11.3847 17.1152 12.1289C17.1152 12.8731 17.7187 13.4766 18.4629 13.4766H23.2246C23.9687 13.4766 24.5722 12.8731 24.5722 12.1289C24.5722 11.3847 23.9687 10.7812 23.2246 10.7812Z" fill="#6D7831"/>
<path d="M19.4155 16.2972C19.165 16.0465 18.8173 15.9023 18.4629 15.9023C18.1085 15.9023 17.7608 16.0464 17.5101 16.2972C17.2594 16.548 17.1152 16.8956 17.1152 17.25C17.1152 17.6044 17.2593 17.9521 17.5101 18.2027C17.7608 18.4535 18.1085 18.5977 18.4629 18.5977C18.8173 18.5977 19.165 18.4535 19.4155 18.2027C19.6663 17.9521 19.8105 17.6044 19.8105 17.25C19.8105 16.8956 19.6663 16.5479 19.4155 16.2972Z" fill="#6D7831"/>
</svg>
