<svg width="66" height="66" viewBox="0 0 66 66" fill="none" xmlns="http://www.w3.org/2000/svg">
<g clip-path="url(#clip0)">
<path d="M59.2536 37.8352C58.804 37.8352 58.3543 37.8946 57.9167 38.0118C57.4621 38.1336 57.0328 38.3132 56.634 38.5482L51.9674 36.7719C52.2121 35.5339 52.3357 34.2701 52.3357 33.0009C52.3357 29.1646 51.2315 25.5009 49.1322 22.3371L56.2621 15.2072C56.9124 15.3814 57.5831 15.4694 58.2657 15.4694C62.5304 15.4694 66 11.9998 66 7.73507C66 3.47048 62.5304 0.000976562 58.2657 0.000976562C54.0009 0.000976562 50.5313 3.47048 50.5313 7.73507C50.5313 8.41737 50.6192 9.08806 50.7931 9.73826L43.6632 16.8682C41.9645 15.7409 40.1209 14.9036 38.1847 14.3673L39.1029 9.94219C39.9382 9.8303 40.7102 9.45106 41.3167 8.84495C42.824 7.33726 42.824 4.88393 41.3165 3.37599C40.5858 2.64561 39.6148 2.24342 38.582 2.24342C37.549 2.24342 36.5779 2.64574 35.8478 3.37599C35.1171 4.10637 34.7148 5.07754 34.7148 6.1106C34.7148 7.14352 35.1171 8.11469 35.8475 8.84495C36.0704 9.06782 36.3158 9.25976 36.5784 9.41948L35.6595 13.8473C34.7851 13.7278 33.8973 13.6649 32.9997 13.6649C27.9175 13.6649 23.036 15.6784 19.4314 19.2262L10.3061 12.6353C10.1725 9.91048 7.91365 7.73507 5.15623 7.73507C2.31296 7.73507 0 10.048 0 12.8912C0 15.7344 2.31296 18.0475 5.15623 18.0475C5.62699 18.0475 6.08809 17.9851 6.53397 17.8614L15.6546 24.4489C14.3494 27.0957 13.6639 30.0287 13.6639 33.0007C13.6639 34.6416 13.8752 36.2614 14.2789 37.8243L9.97898 39.2443C9.46439 38.5767 8.74986 38.0977 7.92203 37.8759C7.59422 37.788 7.25688 37.7436 6.91953 37.7436C5.17325 37.7436 3.63798 38.9225 3.18578 40.6106C2.63393 42.6702 3.86047 44.7948 5.92 45.3468C6.24806 45.4347 6.58541 45.4793 6.92275 45.4793C8.66904 45.4793 10.2043 44.3004 10.6565 42.6125C10.7384 42.308 10.7817 41.9994 10.7886 41.6921L15.0879 40.2722C16.0354 42.604 17.4346 44.7493 19.2255 46.5688L12.6347 55.6942C9.90989 55.8281 7.73434 58.087 7.73434 60.8444C7.73434 63.6875 10.0473 66.0007 12.8908 66.0007C15.7338 66.0007 18.0468 63.6875 18.0468 60.8444C18.0468 60.3736 17.9844 59.9125 17.8608 59.4665L24.4479 50.3459C27.095 51.6513 30.0281 52.3367 33 52.3367C36.4125 52.3367 39.6706 51.4528 42.5139 49.8486L46.4035 55.7761C45.908 56.4261 45.6129 57.2367 45.6129 58.1153C45.6129 60.2477 47.3479 61.9824 49.4806 61.9824C51.6128 61.9824 53.3475 60.2477 53.3475 58.1153C53.3475 55.983 51.6128 54.2483 49.4806 54.2483C49.1626 54.2483 48.854 54.2876 48.5582 54.3603L44.6696 48.4347C46.6603 46.9275 48.368 45.0243 49.6755 42.7956L54.3436 44.5725C55.0251 46.6913 57.007 48.1497 59.2493 48.1495C59.6992 48.1495 60.149 48.0901 60.5862 47.9728C61.9165 47.6163 63.0283 46.7632 63.7172 45.5705C64.4058 44.3777 64.5886 42.9881 64.2321 41.6578C63.6285 39.4071 61.5815 37.8352 59.2536 37.8352ZM8.16618 41.9451C8.01536 42.508 7.50399 42.9012 6.92263 42.9012C6.81061 42.9012 6.69781 42.8863 6.58734 42.8566C5.90079 42.6727 5.4919 41.9643 5.67598 41.2776C5.8268 40.7148 6.33817 40.3217 6.9194 40.3217C7.03142 40.3217 7.14421 40.3366 7.25482 40.3663C7.58739 40.4554 7.86531 40.6687 8.03753 40.967C8.20975 41.265 8.25525 41.6124 8.16618 41.9451ZM49.4805 56.8263C50.1911 56.8263 50.7693 57.4044 50.7693 58.1152C50.7693 58.826 50.1913 59.4041 49.4805 59.4041C48.7694 59.4041 48.1909 58.8259 48.1909 58.1152C48.1909 57.4044 48.7694 56.8263 49.4805 56.8263ZM37.6709 5.19859C37.9141 4.95521 38.2377 4.82115 38.582 4.82115C38.9262 4.82115 39.25 4.95534 39.4934 5.19859C39.9958 5.70119 39.9958 6.5191 39.4936 7.02157C39.2499 7.26508 38.9262 7.39927 38.582 7.39927C38.2376 7.39927 37.914 7.26521 37.6706 7.02157C37.4269 6.77807 37.2929 6.45439 37.2929 6.11021C37.2931 5.76603 37.427 5.44222 37.6709 5.19859ZM61.4843 44.2814C61.1399 44.8777 60.584 45.3043 59.9187 45.4826C59.699 45.5415 59.4736 45.5714 59.2491 45.5714C58.086 45.5715 57.063 44.7853 56.7618 43.6627C56.7381 43.5733 56.7193 43.4853 56.7054 43.4007C56.6314 42.947 56.3214 42.567 55.8916 42.4034L49.5432 39.9869C48.928 39.7526 48.2355 40.0195 47.9364 40.6058C46.6011 43.2231 44.6539 45.3797 42.319 46.9414C42.2767 46.9629 42.2352 46.9864 42.1946 47.0129C42.1553 47.0387 42.1183 47.0664 42.0828 47.0954C39.4305 48.8052 36.2984 49.7586 32.9997 49.7586C30.0858 49.7586 27.2156 48.9988 24.6996 47.5615C24.1274 47.2344 23.401 47.3919 23.0153 47.9261L15.3745 58.5056C15.1045 58.8791 15.0548 59.3682 15.2432 59.7884C15.3928 60.1211 15.4686 60.4764 15.4686 60.8444C15.4686 62.266 14.3121 63.4226 12.8907 63.4226C11.469 63.4226 10.3123 62.2661 10.3123 60.8444C10.3125 59.4227 11.4691 58.2661 12.8908 58.2661C12.9777 58.2661 13.066 58.2707 13.1539 58.2795C13.6106 58.3257 14.0592 58.1249 14.3286 57.7518L21.9724 47.1688C22.3578 46.6351 22.2793 45.8967 21.7901 45.4561C18.264 42.2809 16.2419 37.741 16.2419 33.0007C16.2419 30.0864 17.0018 27.2163 18.4391 24.7009C18.7658 24.1288 18.6087 23.4021 18.0745 23.0165L7.49471 15.3752C7.1214 15.1055 6.6322 15.0556 6.21171 15.2443C5.879 15.3937 5.52413 15.4694 5.15623 15.4694C3.73479 15.4694 2.57811 14.3127 2.57811 12.8912C2.57811 11.4697 3.73479 10.3132 5.15623 10.3132C6.57767 10.3132 7.73434 11.4697 7.73434 12.8912C7.73434 12.9787 7.72983 13.0674 7.72094 13.1547C7.67466 13.6124 7.87575 14.0602 8.24868 14.3296L18.8318 21.9728C19.3654 22.3583 20.1038 22.2795 20.5444 21.7904C23.7194 18.2646 28.2594 16.2426 32.9999 16.2426C34.1429 16.2426 35.2684 16.3558 36.3643 16.5781C36.3786 16.5816 36.3925 16.5863 36.4071 16.5892C36.415 16.5908 36.4224 16.5914 36.4303 16.5928C38.8106 17.0856 41.0518 18.0932 43.0352 19.5784C43.5482 19.9627 44.2661 19.9116 44.7192 19.458L53.1754 11.0017C53.538 10.6392 53.6512 10.0966 53.4639 9.61941C53.2288 9.01974 53.1094 8.38565 53.1094 7.73481C53.1094 4.89179 55.4224 2.57884 58.2657 2.57884C61.1087 2.57884 63.4219 4.89179 63.4219 7.73481C63.4219 10.578 61.1087 12.891 58.2657 12.891C57.6148 12.891 56.9806 12.7717 56.3809 12.5362C55.9038 12.349 55.361 12.4622 54.9984 12.8247L46.5419 21.2813C46.0887 21.7346 46.0374 22.4522 46.4218 22.9654C48.604 25.8792 49.7576 29.3493 49.7576 33.0007C49.7576 34.4396 49.5746 35.8698 49.2135 37.2518C49.0471 37.8885 49.3873 38.5482 50.002 38.7823L56.3491 41.1982C56.7799 41.3623 57.265 41.284 57.622 40.9928C57.9047 40.7623 58.2285 40.5971 58.5838 40.502C58.8038 40.4431 59.0292 40.4132 59.2535 40.4132C60.4167 40.4132 61.4398 41.1994 61.7415 42.3251C61.9199 42.9904 61.8285 43.6851 61.4843 44.2814Z" fill="#DCA41E"/>
<path d="M27.671 21.1918C27.3152 20.5754 26.5272 20.364 25.9101 20.7199C22.8721 22.4738 20.601 25.2771 19.5158 28.6134C19.2955 29.2905 19.6658 30.0179 20.3428 30.238C20.4752 30.2811 20.6096 30.3017 20.7419 30.3017C21.285 30.3017 21.7903 29.9556 21.9675 29.4111C22.8554 26.6811 24.7135 24.3875 27.1992 22.9527C27.8157 22.5968 28.027 21.8084 27.671 21.1918Z" fill="#DCA41E"/>
<path d="M20.1094 31.6688C19.3977 31.6688 18.8203 32.2459 18.8203 32.9578V32.9999C18.8203 33.7118 19.3977 34.2889 20.1094 34.2889C20.8213 34.2889 21.3984 33.7118 21.3984 32.9999V32.9578C21.3984 32.2459 20.8213 31.6688 20.1094 31.6688Z" fill="#DCA41E"/>
<path d="M45.6563 35.7613C44.979 35.5409 44.2518 35.9117 44.032 36.5886C43.1445 39.3179 41.2867 41.6114 38.8005 43.0467C38.1842 43.4026 37.9726 44.191 38.3287 44.8075C38.5674 45.2211 39.0007 45.4523 39.4463 45.4523C39.665 45.4523 39.8866 45.3966 40.0895 45.2795C43.1283 43.5252 45.3991 40.7217 46.4836 37.3857C46.7037 36.7088 46.3335 35.9815 45.6563 35.7613Z" fill="#DCA41E"/>
<path d="M45.8906 31.7108C45.1785 31.7108 44.6016 32.2879 44.6016 32.9999V33.0413C44.6016 33.7532 45.1785 34.3303 45.8906 34.3303C46.6023 34.3303 47.1797 33.7532 47.1797 33.0413V32.9999C47.1797 32.2879 46.6023 31.7108 45.8906 31.7108Z" fill="#DCA41E"/>
<path d="M36.7068 23.4433C33.8637 23.4433 31.5508 25.7564 31.5508 28.5997C31.5508 31.4428 33.8637 33.756 36.7068 33.756C39.55 33.756 41.8632 31.4428 41.8632 28.5997C41.8632 25.7564 39.55 23.4433 36.7068 23.4433ZM36.7068 31.1779C35.2853 31.1779 34.1289 30.0214 34.1289 28.5997C34.1289 27.178 35.2853 26.0214 36.7068 26.0214C38.1285 26.0214 39.2851 27.178 39.2851 28.5997C39.2851 30.0214 38.1285 31.1779 36.7068 31.1779Z" fill="#DCA41E"/>
<path d="M28.0039 34.8215C25.8714 34.8215 24.1367 36.5563 24.1367 38.6885C24.1367 40.8209 25.8714 42.5557 28.0039 42.5557C30.1364 42.5557 31.8711 40.821 31.8711 38.6885C31.8711 36.5563 30.1364 34.8215 28.0039 34.8215ZM28.0039 39.9776C27.2931 39.9776 26.7148 39.3993 26.7148 38.6885C26.7148 37.9777 27.2931 37.3996 28.0039 37.3996C28.7147 37.3996 29.2929 37.9777 29.2929 38.6885C29.2929 39.3993 28.7147 39.9776 28.0039 39.9776Z" fill="#DCA41E"/>
</g>
<defs>
<clipPath id="clip0">
<rect width="66" height="66" fill="white"/>
</clipPath>
</defs>
</svg>
